<!DOCTYPE svg PUBLIC "-//W3C//DTD SVG 1.1//EN" "http://www.w3.org/Graphics/SVG/1.1/DTD/svg11.dtd">
<!-- Uploaded to: SVG Repo, www.svgrepo.com, Transformed by: SVG Repo Mixer Tools -->
<svg fill="#000000" width="800px" height="800px" viewBox="0 0 24 24" id="pendulum-2" data-name="Flat Color" xmlns="http://www.w3.org/2000/svg" class="icon flat-color" transform="rotate(180)">
<g id="SVGRepo_bgCarrier" stroke-width="0"/>
<g id="SVGRepo_tracerCarrier" stroke-linecap="round" stroke-linejoin="round"/>
<g id="SVGRepo_iconCarrier">
<path id="primary" d="M16.4,18.09a1,1,0,0,1-.95-.7L11.05,3.3A1,1,0,1,1,13,2.7l4.4,14.09A1,1,0,0,1,16.7,18,.79.79,0,0,1,16.4,18.09Z" style="fill: #000000;"/>
<path id="secondary" d="M20,19a3,3,0,1,1-3-3A3,3,0,0,1,20,19ZM20,3a1,1,0,0,0-1-1H5A1,1,0,0,0,5,4H19A1,1,0,0,0,20,3Z" style="fill: #2ca9bc;"/>
</g>
</svg>